<svg xmlns="http://www.w3.org/2000/svg" viewBox="0 0 400 220" role="img" aria-label="bp">
<polygon points="110.00,5.00 122.50,39.09 145.91,11.33 146.00,47.65 177.49,29.57 165.16,63.72 200.93,57.50 177.66,85.37 213.40,91.77 182.00,110.00 213.40,128.23 177.66,134.63 200.93,162.50 165.16,156.28 177.49,190.43 146.00,172.35 145.91,208.67 122.50,180.91 110.00,215.00 97.50,180.91 74.09,208.67 74.00,172.35 42.51,190.43 54.84,156.28 19.07,162.50 42.34,134.63 6.60,128.23 38.00,110.00 6.60,91.77 42.34,85.37 19.07,57.50 54.84,63.72 42.51,29.57 74.00,47.65 74.09,11.33 97.50,39.09" fill="#007A33"/>
<polygon points="124.93,25.31 129.84,55.50 153.00,35.52 147.28,65.57 175.88,54.72 160.23,81.00 190.81,80.59 167.12,99.93 196.00,110.00 167.12,120.07 190.81,139.41 160.23,139.00 175.88,165.28 147.28,154.43 153.00,184.48 129.84,164.50 124.93,194.69 110.00,168.00 95.07,194.69 90.16,164.50 67.00,184.48 72.72,154.43 44.12,165.28 59.77,139.00 29.19,139.41 52.88,120.07 24.00,110.00 52.88,99.93 29.19,80.59 59.77,81.00 44.12,54.72 72.72,65.57 67.00,35.52 90.16,55.50 95.07,25.31 110.00,52.00" fill="#66B512"/>
<polygon points="110.00,44.00 117.64,66.67 132.57,47.98 132.00,71.89 152.42,59.44 143.71,81.72 167.16,77.00 151.35,94.95 175.00,98.54 154.00,110.00 175.00,121.46 151.35,125.05 167.16,143.00 143.71,138.28 152.42,160.56 132.00,148.11 132.57,172.02 117.64,153.33 110.00,176.00 102.36,153.33 87.43,172.02 88.00,148.11 67.58,160.56 76.29,138.28 52.84,143.00 68.65,125.05 45.00,121.46 66.00,110.00 45.00,98.54 68.65,94.95 52.84,77.00 76.29,81.72 67.58,59.44 88.00,71.89 87.43,47.98 102.36,66.67" fill="#FFE600"/>
<polygon points="117.64,66.67 119.58,83.69 132.00,71.89 128.00,88.55 143.71,81.72 134.25,96.00 151.35,94.95 137.57,105.14 154.00,110.00 137.57,114.86 151.35,125.05 134.25,124.00 143.71,138.28 128.00,131.45 132.00,148.11 119.58,136.31 117.64,153.33 110.00,138.00 102.36,153.33 100.42,136.31 88.00,148.11 92.00,131.45 76.29,138.28 85.75,124.00 68.65,125.05 82.43,114.86 66.00,110.00 82.43,105.14 68.65,94.95 85.75,96.00 76.29,81.72 92.00,88.55 88.00,71.89 100.42,83.69 102.36,66.67 110.00,82.00" fill="#FFFFFF"/>
<circle cx="110" cy="110" r="16" fill="#FFFFFF"/>
<text x="235" y="152" font-family="Helvetica,Arial,sans-serif" font-size="118" font-weight="600" fill="#007A33" letter-spacing="-4">bp</text>
</svg>